<svg width="25" height="25" viewBox="0 0 25 25" fill="none" xmlns="http://www.w3.org/2000/svg">
<g clip-path="url(#clip0_465_1245)">
<path d="M0 13.3789V11.6211C0.037183 11.332 0.0704519 11.043 0.112854 10.7546C0.415536 8.69336 1.15528 6.80469 2.39993 5.13021C4.38237 2.46615 7.00605 0.809896 10.2762 0.197917C10.7217 0.114583 11.1732 0.0651042 11.6213 0C12.2071 0 12.7929 0 13.3793 0C13.7727 0.0527344 14.168 0.0924479 14.5581 0.160807C17.3925 0.655599 19.81 1.9401 21.7351 4.07878C24.3333 6.96484 25.3679 10.3691 24.8839 14.2142C24.5962 16.4974 23.6979 18.5449 22.2445 20.3314C20.2869 22.7376 17.7793 24.237 14.7238 24.8027C14.2783 24.8854 13.8275 24.9355 13.3787 25.0007H11.6207C11.3323 24.9629 11.0433 24.9297 10.7557 24.8874C8.69364 24.5846 6.80579 23.8444 5.1306 22.5996C2.46647 20.6185 0.810849 17.9948 0.197657 14.7246C0.114158 14.2793 0.0652333 13.8275 0 13.3789ZM12.5007 23.2467C18.4251 23.2467 23.238 18.4421 23.2478 12.5176C23.2576 6.58203 18.448 1.75977 12.5124 1.7526C6.57877 1.74544 1.75673 6.5599 1.75347 12.4935C1.75021 18.4264 6.56769 23.2467 12.5007 23.2467Z" fill="black"/>
<path d="M11.194 13.4596C11.2135 12.3607 11.6891 11.5137 12.5645 10.8633C12.8757 10.6322 13.1666 10.3659 13.4295 10.0807C13.5711 9.92708 13.6669 9.70963 13.725 9.50455C13.8829 8.94205 13.6317 8.46875 13.0909 8.24609C12.2129 7.88476 11.3212 8.14257 10.7771 8.91471C10.4522 9.3763 10.1496 9.47786 9.67662 9.2845C9.24021 9.10546 9.03343 8.71028 9.12475 8.21549C9.24348 7.57031 9.63161 7.09895 10.1802 6.79362C11.6728 5.96354 13.1979 5.98567 14.6539 6.84765C15.8921 7.58073 16.1921 8.99349 15.4896 10.2988C15.136 10.9557 14.622 11.4714 14.042 11.9277C13.6409 12.2435 13.2625 12.5846 13.1607 13.1139C13.1059 13.3991 13.1014 13.6947 13.0883 13.9863C13.0733 14.3249 12.9481 14.5462 12.6186 14.6074C12.3225 14.6628 12.0061 14.6667 11.7067 14.6289C11.4131 14.5918 11.2879 14.3385 11.2442 14.0671C11.2116 13.8672 11.2103 13.6628 11.1953 13.4603L11.194 13.4596Z" fill="black"/>
<path d="M10.8828 17.0852C10.8828 16.3801 11.4295 15.8215 12.1222 15.8196C12.8274 15.8176 13.3982 16.3814 13.3989 17.082C13.4002 17.7753 12.8176 18.358 12.1249 18.3554C11.4406 18.3528 10.8828 17.7831 10.8828 17.0852Z" fill="black"/>
</g>
<defs>
<clipPath id="clip0_465_1245">
<rect width="25" height="25" fill="white"/>
</clipPath>
</defs>
</svg>
